<svg width="164" height="107" viewBox="0 0 164 107" fill="none" xmlns="http://www.w3.org/2000/svg">
<path d="M7.61382 99.0531V80.0721H11.2858V99.0531H7.61382ZM10.3138 99.0531V95.7861H19.9798V99.0531H10.3138ZM28.025 99.3231C26.711 99.3231 25.523 99.0261 24.461 98.4321C23.417 97.8201 22.58 97.0011 21.95 95.9751C21.338 94.9311 21.032 93.7701 21.032 92.4921C21.032 91.2141 21.338 90.0711 21.95 89.0631C22.562 88.0371 23.399 87.2271 24.461 86.6331C25.523 86.0211 26.702 85.7151 27.998 85.7151C29.33 85.7151 30.518 86.0211 31.562 86.6331C32.624 87.2271 33.461 88.0371 34.073 89.0631C34.685 90.0711 34.991 91.2141 34.991 92.4921C34.991 93.7701 34.685 94.9311 34.073 95.9751C33.461 97.0011 32.624 97.8201 31.562 98.4321C30.518 99.0261 29.339 99.3231 28.025 99.3231ZM27.998 96.0291C28.664 96.0291 29.249 95.8851 29.753 95.5971C30.275 95.2911 30.671 94.8771 30.941 94.3551C31.229 93.8151 31.373 93.2031 31.373 92.5191C31.373 91.8351 31.229 91.2321 30.941 90.7101C30.653 90.1881 30.257 89.7831 29.753 89.4951C29.249 89.1891 28.664 89.0361 27.998 89.0361C27.35 89.0361 26.774 89.1891 26.27 89.4951C25.766 89.7831 25.37 90.1881 25.082 90.7101C24.794 91.2321 24.65 91.8351 24.65 92.5191C24.65 93.2031 24.794 93.8151 25.082 94.3551C25.37 94.8771 25.766 95.2911 26.27 95.5971C26.774 95.8851 27.35 96.0291 27.998 96.0291ZM37.268 99.0531V86.0121H40.805V99.0531H37.268ZM40.805 91.8441L39.428 90.9261C39.59 89.3241 40.058 88.0641 40.832 87.1461C41.606 86.2101 42.722 85.7421 44.18 85.7421C44.81 85.7421 45.377 85.8501 45.881 86.0661C46.385 86.2641 46.844 86.5971 47.258 87.0651L45.044 89.6031C44.846 89.3871 44.603 89.2251 44.315 89.1171C44.045 89.0091 43.73 88.9551 43.37 88.9551C42.614 88.9551 41.993 89.1981 41.507 89.6841C41.039 90.1521 40.805 90.8721 40.805 91.8441ZM54.3683 99.3231C53.0003 99.3231 51.7853 99.0351 50.7233 98.4591C49.6613 97.8651 48.8153 97.0551 48.1853 96.0291C47.5733 95.0031 47.2673 93.8331 47.2673 92.5191C47.2673 91.2231 47.5643 90.0711 48.1583 89.0631C48.7703 88.0371 49.5983 87.2271 50.6423 86.6331C51.6863 86.0211 52.8473 85.7151 54.1253 85.7151C55.3853 85.7151 56.4923 86.0031 57.4463 86.5791C58.4183 87.1371 59.1743 87.9111 59.7143 88.9011C60.2723 89.8731 60.5513 90.9801 60.5513 92.2221C60.5513 92.4561 60.5333 92.6991 60.4973 92.9511C60.4793 93.1851 60.4343 93.4551 60.3623 93.7611L49.4003 93.7881V91.1421L58.7153 91.1151L57.2843 92.2221C57.2483 91.4481 57.1043 90.8001 56.8523 90.2781C56.6183 89.7561 56.2673 89.3601 55.7993 89.0901C55.3493 88.8021 54.7913 88.6581 54.1253 88.6581C53.4233 88.6581 52.8113 88.8201 52.2893 89.1441C51.7673 89.4501 51.3623 89.8911 51.0743 90.4671C50.8043 91.0251 50.6693 91.6911 50.6693 92.4651C50.6693 93.2571 50.8133 93.9501 51.1013 94.5441C51.4073 95.1201 51.8393 95.5701 52.3973 95.8941C52.9553 96.2001 53.6033 96.3531 54.3413 96.3531C55.0073 96.3531 55.6103 96.2451 56.1503 96.0291C56.6903 95.7951 57.1583 95.4531 57.5543 95.0031L59.6333 97.0821C59.0033 97.8201 58.2293 98.3781 57.3113 98.7561C56.4113 99.1341 55.4303 99.3231 54.3683 99.3231ZM62.7387 99.0531V86.0121H66.2757V99.0531H62.7387ZM71.2437 99.0531V91.3581C71.2437 90.6021 71.0007 90.0171 70.5147 89.6031C70.0467 89.1711 69.4617 88.9551 68.7597 88.9551C68.2917 88.9551 67.8687 89.0541 67.4907 89.2521C67.1127 89.4321 66.8157 89.7021 66.5997 90.0621C66.3837 90.4221 66.2757 90.8541 66.2757 91.3581L64.8987 90.6831C64.8987 89.6751 65.1147 88.8021 65.5467 88.0641C65.9967 87.3261 66.5997 86.7591 67.3557 86.3631C68.1117 85.9491 68.9667 85.7421 69.9207 85.7421C70.8207 85.7421 71.6397 85.9491 72.3777 86.3631C73.1157 86.7591 73.7007 87.3261 74.1327 88.0641C74.5647 88.7841 74.7807 89.6571 74.7807 90.6831V99.0531H71.2437ZM79.7487 99.0531V91.3581C79.7487 90.6021 79.5057 90.0171 79.0197 89.6031C78.5517 89.1711 77.9667 88.9551 77.2647 88.9551C76.8147 88.9551 76.3917 89.0541 75.9957 89.2521C75.6177 89.4321 75.3207 89.7021 75.1047 90.0621C74.8887 90.4221 74.7807 90.8541 74.7807 91.3581L72.7557 90.8721C72.8277 89.8281 73.1067 88.9281 73.5927 88.1721C74.0787 87.3981 74.7177 86.8041 75.5097 86.3901C76.3017 85.9581 77.1837 85.7421 78.1557 85.7421C79.1277 85.7421 80.0007 85.9491 80.7747 86.3631C81.5487 86.7591 82.1607 87.3351 82.6107 88.0911C83.0607 88.8471 83.2857 89.7471 83.2857 90.7911V99.0531H79.7487Z" fill="#DEE33E"/>
<path d="M86.5308 99.0531V80.0721H90.2028V99.0531H86.5308ZM100.956 99.3231C100.02 99.3231 99.1742 99.1341 98.4182 98.7561C97.6622 98.3601 97.0592 97.8291 96.6092 97.1631C96.1592 96.4971 95.9162 95.7321 95.8802 94.8681V90.2511C95.9162 89.3871 96.1592 88.6221 96.6092 87.9561C97.0772 87.2721 97.6802 86.7321 98.4182 86.3361C99.1742 85.9401 100.02 85.7421 100.956 85.7421C102.162 85.7421 103.242 86.0391 104.196 86.6331C105.15 87.2271 105.897 88.0371 106.437 89.0631C106.995 90.0891 107.274 91.2501 107.274 92.5461C107.274 93.8241 106.995 94.9761 106.437 96.0021C105.897 97.0281 105.15 97.8381 104.196 98.4321C103.242 99.0261 102.162 99.3231 100.956 99.3231ZM100.335 96.0561C100.983 96.0561 101.559 95.9121 102.063 95.6241C102.567 95.3181 102.954 94.9041 103.224 94.3821C103.512 93.8421 103.656 93.2211 103.656 92.5191C103.656 91.8351 103.512 91.2321 103.224 90.7101C102.954 90.1701 102.567 89.7561 102.063 89.4681C101.559 89.1621 100.983 89.0091 100.335 89.0091C99.7052 89.0091 99.1382 89.1621 98.6342 89.4681C98.1302 89.7561 97.7342 90.1701 97.4462 90.7101C97.1762 91.2321 97.0412 91.8351 97.0412 92.5191C97.0412 93.2211 97.1762 93.8421 97.4462 94.3821C97.7342 94.9041 98.1212 95.3181 98.6072 95.6241C99.1112 95.9121 99.6872 96.0561 100.335 96.0561ZM93.7202 104.507V86.0121H97.2572V89.4411L96.6632 92.6001L97.2302 95.7591V104.507H93.7202ZM114.075 99.3501C113.337 99.3501 112.608 99.2511 111.888 99.0531C111.186 98.8551 110.538 98.5851 109.944 98.2431C109.35 97.8831 108.837 97.4511 108.405 96.9471L110.511 94.8141C110.961 95.3181 111.483 95.6961 112.077 95.9481C112.671 96.2001 113.328 96.3261 114.048 96.3261C114.624 96.3261 115.056 96.2451 115.344 96.0831C115.65 95.9211 115.803 95.6781 115.803 95.3541C115.803 94.9941 115.641 94.7151 115.317 94.5171C115.011 94.3191 114.606 94.1571 114.102 94.0311C113.598 93.8871 113.067 93.7341 112.509 93.5721C111.969 93.3921 111.447 93.1671 110.943 92.8971C110.439 92.6091 110.025 92.2221 109.701 91.7361C109.395 91.2321 109.242 90.5841 109.242 89.7921C109.242 88.9641 109.44 88.2441 109.836 87.6321C110.25 87.0201 110.835 86.5431 111.591 86.2011C112.347 85.8591 113.238 85.6881 114.264 85.6881C115.344 85.6881 116.316 85.8771 117.18 86.2551C118.062 86.6331 118.791 87.2001 119.367 87.9561L117.234 90.0891C116.838 89.6031 116.388 89.2521 115.884 89.0361C115.398 88.8201 114.867 88.7121 114.291 88.7121C113.769 88.7121 113.364 88.7931 113.076 88.9551C112.806 89.1171 112.671 89.3421 112.671 89.6301C112.671 89.9541 112.824 90.2061 113.13 90.3861C113.454 90.5661 113.868 90.7281 114.372 90.8721C114.876 90.9981 115.398 91.1511 115.938 91.3311C116.496 91.4931 117.018 91.7271 117.504 92.0331C118.008 92.3391 118.413 92.7441 118.719 93.2481C119.043 93.7521 119.205 94.4001 119.205 95.1921C119.205 96.4701 118.746 97.4871 117.828 98.2431C116.91 98.9811 115.659 99.3501 114.075 99.3501ZM127.152 99.3231C126 99.3231 124.974 99.0801 124.074 98.5941C123.192 98.1081 122.499 97.4331 121.995 96.5691C121.491 95.7051 121.239 94.7061 121.239 93.5721V86.0121H124.803V93.4911C124.803 94.0311 124.893 94.4991 125.073 94.8951C125.253 95.2731 125.523 95.5611 125.883 95.7591C126.243 95.9571 126.666 96.0561 127.152 96.0561C127.89 96.0561 128.466 95.8311 128.88 95.3811C129.294 94.9311 129.501 94.3011 129.501 93.4911V86.0121H133.038V93.5721C133.038 94.7241 132.786 95.7321 132.282 96.5961C131.796 97.4601 131.103 98.1351 130.203 98.6211C129.321 99.0891 128.304 99.3231 127.152 99.3231ZM135.855 99.0531V86.0121H139.392V99.0531H135.855ZM144.36 99.0531V91.3581C144.36 90.6021 144.117 90.0171 143.631 89.6031C143.163 89.1711 142.578 88.9551 141.876 88.9551C141.408 88.9551 140.985 89.0541 140.607 89.2521C140.229 89.4321 139.932 89.7021 139.716 90.0621C139.5 90.4221 139.392 90.8541 139.392 91.3581L138.015 90.6831C138.015 89.6751 138.231 88.8021 138.663 88.0641C139.113 87.3261 139.716 86.7591 140.472 86.3631C141.228 85.9491 142.083 85.7421 143.037 85.7421C143.937 85.7421 144.756 85.9491 145.494 86.3631C146.232 86.7591 146.817 87.3261 147.249 88.0641C147.681 88.7841 147.897 89.6571 147.897 90.6831V99.0531H144.36ZM152.865 99.0531V91.3581C152.865 90.6021 152.622 90.0171 152.136 89.6031C151.668 89.1711 151.083 88.9551 150.381 88.9551C149.931 88.9551 149.508 89.0541 149.112 89.2521C148.734 89.4321 148.437 89.7021 148.221 90.0621C148.005 90.4221 147.897 90.8541 147.897 91.3581L145.872 90.8721C145.944 89.8281 146.223 88.9281 146.709 88.1721C147.195 87.3981 147.834 86.8041 148.626 86.3901C149.418 85.9581 150.3 85.7421 151.272 85.7421C152.244 85.7421 153.117 85.9491 153.891 86.3631C154.665 86.7591 155.277 87.3351 155.727 88.0911C156.177 88.8471 156.402 89.7471 156.402 90.7911V99.0531H152.865Z" fill="black"/>
<path d="M62.5053 19.2104C60.0012 11.5036 64.2188 3.22614 71.9255 0.722079C79.6322 -1.78199 87.9097 2.4356 90.4138 10.1423L101.595 44.5538C104.099 52.2605 99.8812 60.538 92.1745 63.0421C84.4678 65.5461 76.1903 61.3285 73.6862 53.6218L62.5053 19.2104Z" fill="#DEE33E"/>
<path d="M101.537 19.2104C99.0326 11.5036 103.25 3.22614 110.957 0.722079C118.664 -1.78199 126.941 2.4356 129.445 10.1423L140.626 44.5538C143.13 52.2605 138.913 60.538 131.206 63.0421C123.499 65.5461 115.222 61.3285 112.718 53.6218L101.537 19.2104Z" fill="#DEE33E"/>
<path d="M22.2841 19.2104C19.78 11.5036 23.9976 3.22614 31.7043 0.722079C39.4111 -1.78199 47.6885 2.4356 50.1926 10.1423L61.3736 44.5538C63.8776 52.2605 59.66 60.538 51.9533 63.0421C44.2466 65.5461 35.9691 61.3285 33.465 53.6218L22.2841 19.2104Z" fill="#DEE33E"/>
</svg>
